<?xml version="1.0" encoding="UTF-8" standalone="no"?>
<!-- Created with Inkscape (http://www.inkscape.org/) -->

<svg
   xmlns:dc="http://purl.org/dc/elements/1.1/"
   xmlns:cc="http://creativecommons.org/ns#"
   xmlns:rdf="http://www.w3.org/1999/02/22-rdf-syntax-ns#"
   xmlns:svg="http://www.w3.org/2000/svg"
   xmlns="http://www.w3.org/2000/svg"
   xmlns:sodipodi="http://sodipodi.sourceforge.net/DTD/sodipodi-0.dtd"
   xmlns:inkscape="http://www.inkscape.org/namespaces/inkscape"
   id="svg2"
   version="1.1"
   inkscape:version="0.48.3.1 r9886"
   width="1976.25"
   height="1080"
   xml:space="preserve"
   sodipodi:docname="logoCS6.eps"><metadata
     id="metadata8"><rdf:RDF><cc:Work
         rdf:about=""><dc:format>image/svg+xml</dc:format><dc:type
           rdf:resource="http://purl.org/dc/dcmitype/StillImage" /><dc:title></dc:title></cc:Work></rdf:RDF></metadata><defs
     id="defs6" /><sodipodi:namedview
     pagecolor="#ffffff"
     bordercolor="#666666"
     borderopacity="1"
     objecttolerance="10"
     gridtolerance="10"
     guidetolerance="10"
     inkscape:pageopacity="0"
     inkscape:pageshadow="2"
     inkscape:window-width="1680"
     inkscape:window-height="1021"
     id="namedview4"
     showgrid="false"
     inkscape:zoom="0.18772929"
     inkscape:cx="988.125"
     inkscape:cy="540"
     inkscape:window-x="1680"
     inkscape:window-y="0"
     inkscape:window-maximized="1"
     inkscape:current-layer="g10" /><g
     id="g10"
     inkscape:groupmode="layer"
     inkscape:label="ink_ext_XXXXXX"
     transform="matrix(1.25,0,0,-1.25,0,1080)"><g
       id="g12"
       transform="scale(0.107771,0.107771)"><path
         d="m 0,0 14670,0 0,8017 L 0,8017 0,0 z"
         style="fill:#ffffff;fill-opacity:1;fill-rule:nonzero;stroke:none"
         id="path14" /><path
         d="m 1456.96,2144.4 -429.95,-979.02 859.88,0 -429.93,979.02 z m 126.9,227.91 813.28,-1813.013 -243.46,0 -178.72,398.867 -1036.015,0 -176.117,-398.867 -246.062,0 813.274,1813.013 253.82,0"
         style="fill:#4c5e66;fill-opacity:1;fill-rule:nonzero;stroke:none"
         id="path16" /><path
         d="m 3977.02,1489.11 c 0,336.71 -222.73,668.23 -686.35,668.23 l -435.13,0 0,-1372.703 435.13,0 c 481.74,0 686.35,357.413 686.35,704.473 z m -1346.8,885.8 660.45,0 c 616.41,0 911.69,-440.31 911.69,-888.39 0,-463.61 -277.14,-927.223 -911.69,-927.223 l -660.45,0 0,1815.613"
         style="fill:#4c5e66;fill-opacity:1;fill-rule:nonzero;stroke:none"
         id="path18" /><path
         d="m 4722.93,888.234 372.97,0 c 411.81,0 574.99,300.446 567.21,595.716 -7.77,282.32 -173.53,564.62 -567.21,564.62 l -372.97,0 0,-1160.336 z m 1279.48,593.106 c 7.78,-458.43 -271.96,-922.043 -906.51,-922.043 -222.73,0 -489.5,0 -712.26,0 l 0,1813.013 c 222.76,0 489.53,0 712.26,0 621.6,0 898.74,-442.88 906.51,-890.97"
         style="fill:#4c5e66;fill-opacity:1;fill-rule:nonzero;stroke:none"
         id="path20" /><path
         d="m 7527.9,559.297 -1357.19,0 c 0,603.473 0,1209.543 0,1813.013 l 1357.19,0 0,-331.53 -1017.88,0 0,-416.98 981.62,0 0,-318.57 -981.62,0 0,-409.226 1017.88,0 0,-336.707"
         style="fill:#4c5e66;fill-opacity:1;fill-rule:nonzero;stroke:none"
         id="path22" /><path
         d="m 7740.24,559.297 0,1810.433 1302.78,0 0,-328.95 -960.89,0 0,-494.68 909.1,0 0,-315.98 -909.1,0 0,-670.823 -341.89,0"
         style="fill:#4c5e66;fill-opacity:1;fill-rule:nonzero;stroke:none"
         id="path24" /><path
         d="m 10578.9,559.297 -1357.19,0 c 0,603.473 0,1209.543 0,1813.013 l 1357.19,0 0,-331.53 -1017.88,0 0,-416.98 981.58,0 0,-318.57 -981.58,0 0,-409.226 1017.88,0 0,-336.707"
         style="fill:#4c5e66;fill-opacity:1;fill-rule:nonzero;stroke:none"
         id="path26" /><path
         d="m 12037,2374.91 341.9,0 0,-1815.613 -212.4,0 0,-2.59 -953.1,1225.083 0,-1222.493 -341.9,0 0,1813.013 277.1,0 888.4,-1124.06 0,1126.66"
         style="fill:#4c5e66;fill-opacity:1;fill-rule:nonzero;stroke:none"
         id="path28" /><path
         d="m 12956.5,888.234 373,0 c 411.8,0 574.9,300.446 567.2,595.716 -7.8,282.32 -173.6,564.62 -567.2,564.62 l -373,0 0,-1160.336 z m 1279.4,593.106 c 7.8,-458.43 -271.9,-922.043 -906.4,-922.043 -222.8,0 -489.6,0 -712.3,0 l 0,1813.013 c 222.7,0 489.5,0 712.3,0 621.6,0 898.6,-442.88 906.4,-890.97"
         style="fill:#4c5e66;fill-opacity:1;fill-rule:nonzero;stroke:none"
         id="path30" /><path
         d="m 6791.03,4678.25 517.05,0 -295.44,728.61 -683.6,1685.81 -495.5,0 -1049.69,-2733.71 -175.7,-457.53 4902.3,0 c 228.72,21.78 424.79,88.92 588.15,201.49 103.9,71.44 193.9,156.87 270.4,256.04 215.4,278.84 323.2,667.19 323.2,1165.31 0,653.51 -183.3,1110.95 -550,1372.35 -156.11,108.92 -341.32,174.27 -555.48,196.05 l -2157.06,0 212.6,-468.33 1756.28,0 c 148.47,-18.21 275.03,-65.36 380.07,-141.61 256.79,-188.81 385.39,-510.11 385.39,-963.9 0,-486.54 -132.2,-824.19 -396.25,-1012.93 -112,-83.41 -245.7,-132.38 -400.85,-146.94 -0.28,-0.02 -0.56,-0.06 -0.83,-0.08 l -868.52,0 0,0.08 -502.16,0 0,-0.07 -1080.1,0.07 -1594.75,0 780.27,2093.06 690.22,-1773.77"
         style="fill:#64c549;fill-opacity:1;fill-rule:nonzero;stroke:none"
         id="path32" /><path
         d="m 10523.4,7403.42 c -225.2,148.65 -493.8,239.27 -805.94,271.95 l -2543.33,0 198.29,-457.45 2274.24,0 c 232.25,-21.79 431.94,-92.41 599.04,-212.04 399.3,-282.75 599.1,-773.9 599.1,-1473.52 0,-488.99 -96.6,-880.02 -289.3,-1173.4 -95.8,-145.91 -215.3,-267.79 -358.9,-365.3 -177.9,-119.63 -392.01,-192.12 -642.54,-217.5 l -5150.21,0 224.53,582.8 1101.43,2858.96 711.03,0 571.8,-1427.61 445.41,-1112.06 519.75,0 -965.16,2428.38 -226.07,568.74 -1426.8,0 -1305.9,-3316.41 -409.62,-1040.23 5975.13,0 c 337.66,32.58 626.32,125.08 865.92,277.39 286.4,184.65 500.8,438.95 643.3,762.84 142.9,324.78 213.4,719.53 211.7,1184.3 -3.7,884.77 -276,1504.83 -816.9,1860.16"
         style="fill:#488e34;fill-opacity:1;fill-rule:nonzero;stroke:none"
         id="path34" /></g></g></svg>